<?xml version="1.0" encoding="utf-8"?>
<!-- Generator: Adobe Illustrator 22.1.0, SVG Export Plug-In . SVG Version: 6.00 Build 0)  -->
<svg version="1.1" id="Layer_1" xmlns="http://www.w3.org/2000/svg" xmlns:xlink="http://www.w3.org/1999/xlink" x="0px" y="0px"
	 viewBox="0 0 341.8 229.6" style="enable-background:new 0 0 341.8 229.6;" xml:space="preserve">
<g stroke="none" stroke-width="1" fill="none" fill-rule="evenodd">
	<g fill="#EDEDED">
		<path class="st0" d="M252,0H77c-8,0-14.5,6.5-14.5,14.5v121c0,8,6.5,14.5,14.5,14.5h175c8,0,14.5-6.5,14.5-14.5v-121
			C266.5,6.5,260,0,252,0z M77,5h175c5.2,0,9.5,4.3,9.5,9.5v9.2h-194v-9.2C67.5,9.3,71.7,5,77,5z M252,145H77
			c-5.2,0-9.5-4.3-9.5-9.5v-88h194v88C261.5,140.7,257.2,145,252,145z"/>
		<ellipse class="st0" cx="114.5" cy="80.2" rx="6.5" ry="11.8"/>
		<path class="st0" d="M208,80.2c-0.5-2.4-0.4-5,0.4-7.5c0.4-1.2,1-2.5,2-3.6c0.9-1.1,2.4-2,4.1-2.1c1.7,0,3.3,0.9,4.3,1.9
			c1,1.1,1.7,2.3,2.2,3.5c1,2.5,1.2,5.2,1.1,7.7l-0.8-1c0.4,0.1,1,0.3,1.6,0.3c0.6,0,1.1,0,1.7-0.2c0.6-0.1,1.1-0.4,1.6-0.7
			c0.5-0.3,1-0.8,1.4-1.2c-0.2,0.6-0.5,1.2-1,1.8c-0.4,0.5-1,1-1.6,1.3c-0.6,0.4-1.3,0.6-2,0.7c-0.7,0.1-1.4,0.2-2.2,0l-0.7-0.1
			l-0.1-0.9c-0.2-2.3-0.7-4.6-1.6-6.6c-0.5-1-1-1.9-1.7-2.6c-0.7-0.7-1.4-1.1-2.1-1.1c-1.5-0.1-3.2,1.6-4.2,3.6
			C209.2,75.5,208.5,77.8,208,80.2z"/>
		<path class="st0" d="M202.3,111.3c0.7,1,1.1,2.3,1.2,3.6c0,1.3-0.2,2.7-0.8,3.9c-1.1,2.5-3.3,4.4-5.9,5.4c-2.5,1-5.5,1-8-0.1
			c-1.2-0.5-2.3-1.4-3.2-2.4c-0.8-1-1.4-2.2-1.5-3.5c1.5,2,3.4,3.2,5.5,3.6c2.1,0.5,4.2,0.3,6.1-0.5c1.9-0.8,3.7-2,4.9-3.8
			C201.9,116,202.5,113.8,202.3,111.3z"/>
	</g>
	<g fill="#EDEDED">
		<path class="st0" d="M35,198v18.7h-7.9v-8.2H11.5v8.2H3.8V198c0-10.4,6.3-16,15.6-16S35,187.6,35,198z M27.1,202.1v-4.9
			c0-5.8-3.1-8.6-7.8-8.6c-4.7,0-7.8,2.8-7.8,8.6v4.9H27.1z"/>
		<path class="st0" d="M69.1,201.6v15h-7.6v-13.8c0-4.2-1.9-6.2-5.3-6.2c-3.7,0-6.3,2.2-6.3,7.1v13h-7.6v-36.1h7.6v12.7
			c2-2,5-3.1,8.3-3.1C64.4,190,69.1,193.6,69.1,201.6z"/>
		<path class="st0" d="M74.3,203.5c0-7.9,6.1-13.5,14.4-13.5s14.4,5.6,14.4,13.5c0,7.9-6,13.5-14.4,13.5S74.3,211.4,74.3,203.5z
			 M95.4,203.5c0-4.5-2.9-7.3-6.7-7.3S82,199,82,203.5c0,4.5,2.9,7.3,6.7,7.3S95.4,208,95.4,203.5z"/>
		<path class="st0" d="M124.4,190v7c-0.6,0-1.1-0.1-1.7-0.1c-4.2,0-7,2.3-7,7.3v12.4h-7.6v-26.2h7.3v3.5
			C117.3,191.3,120.4,190,124.4,190z"/>
		<path class="st0" d="M145.2,190v7c-0.6,0-1.1-0.1-1.7-0.1c-4.2,0-7,2.3-7,7.3v12.4h-7.6v-26.2h7.3v3.5
			C138.1,191.3,141.2,190,145.2,190z"/>
		<path class="st0" d="M176.1,190.4v26.2h-7.3v-3c-1.9,2.3-4.7,3.4-8.2,3.4c-7.4,0-13.1-5.3-13.1-13.5c0-8.2,5.7-13.5,13.1-13.5
			c3.2,0,5.9,1,7.8,3.2v-2.8H176.1z M168.6,203.5c0-4.5-2.9-7.3-6.7-7.3c-3.8,0-6.7,2.7-6.7,7.3c0,4.5,2.9,7.3,6.7,7.3
			C165.7,210.8,168.6,208,168.6,203.5z"/>
		<path class="st0" d="M209.9,201.6v15h-7.6v-13.8c0-4.2-1.9-6.2-5.3-6.2c-3.7,0-6.3,2.2-6.3,7.1v13h-7.6v-26.2h7.3v3.1
			c2-2.2,5.1-3.5,8.7-3.5C205.2,190,209.9,193.6,209.9,201.6z"/>
		<path class="st0" d="M243.8,180.5v36.1h-7.3v-3c-1.9,2.3-4.7,3.4-8.2,3.4c-7.4,0-13.1-5.3-13.1-13.5c0-8.2,5.7-13.5,13.1-13.5
			c3.2,0,5.9,1,7.8,3.2v-12.7H243.8z M236.3,203.5c0-4.5-2.9-7.3-6.7-7.3c-3.8,0-6.7,2.7-6.7,7.3c0,4.5,2.9,7.3,6.7,7.3
			C233.4,210.8,236.3,208,236.3,203.5z"/>
		<path class="st0" d="M248.8,203.5c0-7.9,6.1-13.5,14.4-13.5s14.4,5.6,14.4,13.5c0,7.9-6,13.5-14.4,13.5S248.8,211.4,248.8,203.5z
			 M269.9,203.5c0-4.5-2.9-7.3-6.7-7.3s-6.7,2.7-6.7,7.3c0,4.5,2.9,7.3,6.7,7.3S269.9,208,269.9,203.5z"/>
		<path class="st0" d="M280.5,212.2c0-2.8,2.1-4.7,4.7-4.7c2.6,0,4.7,1.9,4.7,4.7c0,2.8-2.1,4.8-4.7,4.8
			C282.6,217,280.5,215,280.5,212.2z"/>
		<path class="st0" d="M295.1,207.9v-27.5h7.6v27c0,2.2,1.2,3.5,3.3,3.5c0.8,0,1.7-0.2,2.1-0.5l0.3,5.9c-1.3,0.4-2.6,0.6-3.9,0.6
			C298.6,217,295.1,213.8,295.1,207.9z"/>
		<path class="st0" d="M338.3,190.4v26.2h-7.3v-3c-1.9,2.3-4.7,3.4-8.2,3.4c-7.4,0-13.1-5.3-13.1-13.5c0-8.2,5.7-13.5,13.1-13.5
			c3.2,0,5.9,1,7.8,3.2v-2.8H338.3z M330.9,203.5c0-4.5-2.9-7.3-6.7-7.3c-3.8,0-6.7,2.7-6.7,7.3c0,4.5,2.9,7.3,6.7,7.3
			C327.9,210.8,330.9,208,330.9,203.5z"/>
	</g>
</g>
</svg>
