<?xml version="1.0" encoding="utf-8"?>
<!-- Generator: Adobe Illustrator 22.1.0, SVG Export Plug-In . SVG Version: 6.00 Build 0)  -->
<svg version="1.1" id="Layer_1" xmlns="http://www.w3.org/2000/svg" xmlns:xlink="http://www.w3.org/1999/xlink" x="0px" y="0px"
	 viewBox="0 0 371.2 371.2" style="enable-background:new 0 0 371.2 371.2;" xml:space="preserve">
<style type="text/css">
	.st0{fill:url(#SVGID_1_);}
	.st1{fill:none;}
	.st2{fill:#8CD2D1;}
	.st3{fill:#ACDEE2;}
	.st4{opacity:0.8;fill:#FFFFFF;}
	.st5{fill:#189687;}
	.st6{fill:#0D7163;}
	.st7{fill:#4B4B4B;}
	.st8{fill:#EDEDED;}
	.st9{fill:#DC8F27;}
	.st10{fill:#F1AC2F;}
</style>
<g>
	<radialGradient id="SVGID_1_" cx="183.777" cy="161.1462" r="216.4052" gradientUnits="userSpaceOnUse">
		<stop  offset="0" style="stop-color:#EDEDED"/>
		<stop  offset="8.520067e-02" style="stop-color:#E6E9E9;stop-opacity:0.8821"/>
		<stop  offset="0.1946" style="stop-color:#D4DFDD;stop-opacity:0.7307"/>
		<stop  offset="0.3171" style="stop-color:#B9D0CC;stop-opacity:0.5611"/>
		<stop  offset="0.4492" style="stop-color:#95BEB7;stop-opacity:0.3782"/>
		<stop  offset="0.5874" style="stop-color:#67AA9F;stop-opacity:0.187"/>
		<stop  offset="0.7225" style="stop-color:#189687;stop-opacity:0"/>
	</radialGradient>
	<circle class="st0" cx="185.6" cy="185.6" r="185.6"/>
	<g>
		<g>
			<path class="st1" d="M284.6,214v1c0,5.2-4.3,9.5-9.5,9.5h0.3c5.2,0,9.5-4.3,9.5-9.5v-2.6C284.8,212.9,284.7,213.5,284.6,214z"/>
			<path class="st2" d="M90.9,94v9.2h119.2l11.7-18.7H100.4C95.2,84.5,90.9,88.8,90.9,94z"/>
			<path class="st2" d="M284.6,215v-1c-1.7,9.1-5.5,9.5-9,10.3c-0.5,0.1-3.1,0.2-7.3,0.3h6.8C280.4,224.5,284.6,220.2,284.6,215z"/>
			<path class="st2" d="M136.4,224.2L136.4,224.2c-1.3,0-2.1,0-2.1,0l60.9-97.2H90.9v16.1l0,0.6l0.2,12.7l0.2,25.4
				c0,8.5,0,16.9-0.1,25.4l0,6.3c-0.1,2.1,0.2,4.2,1.2,6.1c0.5,1,1.2,2,2.1,2.8c1.6,1.3,3.7,2.2,6,2.2h82.8
				C161.3,224.4,142.5,224.3,136.4,224.2L136.4,224.2z"/>
			<path class="st3" d="M284.6,103.2h0.3V94c0-5.2-4.3-9.5-9.5-9.5h-0.3h-53.4l-11.7,18.7H284.6z M279.5,87.1c0.8,0.4,1.5,1,2.1,1.8
				c0.6,0.7,1,1.6,1.3,2.4c0.2,0.9,0.3,1.8,0.3,2.7c0,0.9,0,1.7-0.1,2.6c-0.1,1.7-0.2,3.4-0.4,5.1c-0.2-1.7-0.3-3.4-0.4-5.1
				c0-0.9-0.1-1.7-0.1-2.6c0-0.8-0.1-1.6-0.3-2.4c-0.5-1.5-1.5-2.9-2.8-3.8c-1.3-0.9-2.9-1.6-4.6-1.9
				C276.2,85.8,278,86.2,279.5,87.1z M236.6,101.8c3.5-0.1,7-0.1,10.5-0.1c3.5,0,7,0,10.5,0.1l5.3,0.1c1.8,0.1,3.5,0.1,5.3,0.2
				c-1.8,0.1-3.5,0.2-5.3,0.2l-5.3,0.1c-3.5,0.1-7,0.1-10.5,0.1c-3.5,0-7,0-10.5-0.1c-3.5-0.1-7-0.2-10.5-0.4
				C229.6,102,233.1,101.9,236.6,101.8z"/>
			<path class="st3" d="M284.6,214c0.1-0.5,0.2-1,0.3-1.6V127h-0.3h-89.5l-60.9,97.2c0,0,0.7,0,2.1,0l7.2-12l7.3-11.9l14.7-23.7
				l14.9-23.6c5-7.9,10-15.7,15.1-23.5c-4.8,8-9.6,15.9-14.5,23.9l-14.7,23.7l-14.9,23.6l-7.5,11.8l-7.6,11.7
				c6.1,0,24.9,0.2,46.9,0.2h85.1c4.2-0.1,6.9-0.1,7.3-0.3C279.2,223.4,282.9,223,284.6,214z"/>
			<path class="st4" d="M136.4,224.2l7.6-11.7l7.5-11.8l14.9-23.6l14.7-23.7c4.9-7.9,9.7-15.9,14.5-23.9
				c-5.1,7.8-10.1,15.6-15.1,23.5l-14.9,23.6l-14.7,23.7l-7.3,11.9L136.4,224.2L136.4,224.2L136.4,224.2z"/>
			<path class="st5" d="M275.4,79.5h-175c-8,0-14.5,6.5-14.5,14.5v121c0,8,6.5,14.5,14.5,14.5h175c8,0,14.5-6.5,14.5-14.5V94
				C289.9,86,283.4,79.5,275.4,79.5z M285,124.9H90.9V105H285V124.9z M221.8,84.5h53.4h0.3c5.2,0,9.5,4.3,9.5,9.5v9.2h-0.3h-74.6
				H90.9V94c0-5.2,4.3-9.5,9.5-9.5H221.8z M275.4,224.5h-0.3h-6.8h-85.1h-82.8c-2.3,0-4.4-0.8-6-2.2c0.7,0.6,1.4,1.1,2.3,1.5
				c1.9,0.9,4.1,1,6.2,0.8c-2.1,0.3-4.3,0.2-6.3-0.6c-2-0.8-3.6-2.4-4.6-4.3c-0.5-1-0.9-2-1.1-3c-0.3-1.1-0.2-2.2-0.3-3.2l-0.1-6.3
				c-0.2-8.5-0.1-16.9-0.2-25.4l0-25.4l0.1-12.7l0.2-12.7l0.3,12.1V127h104.3h89.5h0.3v85.4v2.6
				C284.9,220.2,280.6,224.5,275.4,224.5z"/>
			<path class="st4" d="M247.1,102.7c3.5,0,7,0,10.5-0.1l5.3-0.1c1.8-0.1,3.5-0.1,5.3-0.2c-1.8-0.1-3.5-0.2-5.3-0.2l-5.3-0.1
				c-3.5-0.1-7-0.1-10.5-0.1c-3.5,0-7,0-10.5,0.1c-3.5,0.1-7,0.2-10.5,0.4c3.5,0.2,7,0.3,10.5,0.4
				C240.1,102.7,243.6,102.7,247.1,102.7z"/>
			<path class="st4" d="M281.9,91.6c0.2,0.8,0.3,1.6,0.3,2.4c0,0.9,0,1.7,0.1,2.6c0.1,1.7,0.2,3.4,0.4,5.1c0.2-1.7,0.3-3.4,0.4-5.1
				c0-0.9,0.1-1.7,0.1-2.6c0-0.9-0.1-1.8-0.3-2.7c-0.3-0.9-0.7-1.7-1.3-2.4c-0.6-0.7-1.3-1.3-2.1-1.8c-1.6-0.9-3.3-1.3-5.1-1.3
				c1.7,0.4,3.3,1,4.6,1.9C280.5,88.7,281.5,90.1,281.9,91.6z"/>
			<rect x="90.9" y="105" class="st6" width="194.1" height="19.9"/>
			<path class="st6" d="M92.3,219.6c-0.9-1.9-1.3-3.9-1.2-6.1l0-6.3c0.1-8.5,0-16.9,0.1-25.4l-0.2-25.4l-0.2-12.7l0-0.6L90.6,131
				l-0.2,12.7l-0.1,12.7l0,25.4c0.1,8.5,0.1,16.9,0.2,25.4l0.1,6.3c0,1,0,2.1,0.3,3.2c0.2,1.1,0.6,2.1,1.1,3c1,1.9,2.6,3.5,4.6,4.3
				c2,0.8,4.2,0.9,6.3,0.6c-2.1,0.2-4.3,0.1-6.2-0.8c-0.8-0.4-1.6-0.9-2.3-1.5C93.5,221.6,92.8,220.6,92.3,219.6z"/>
		</g>
		<g>
			<ellipse class="st7" cx="134.6" cy="151.9" rx="6.5" ry="11.8"/>
			<path class="st7" d="M228.1,151.9c-0.5-2.4-0.4-5,0.4-7.5c0.4-1.2,1-2.5,2-3.6c0.9-1.1,2.4-2,4.1-2.1c1.7,0,3.3,0.9,4.3,1.9
				c1,1.1,1.7,2.3,2.2,3.5c1,2.5,1.2,5.2,1.1,7.7l-0.8-1c0.4,0.1,1,0.3,1.6,0.3c0.6,0,1.1,0,1.7-0.2c0.6-0.1,1.1-0.4,1.6-0.7
				c0.5-0.3,1-0.8,1.4-1.2c-0.2,0.6-0.5,1.2-1,1.8c-0.4,0.5-1,1-1.6,1.3c-0.6,0.4-1.3,0.6-2,0.7c-0.7,0.1-1.4,0.2-2.2,0l-0.7-0.1
				l-0.1-0.9c-0.2-2.3-0.7-4.6-1.6-6.6c-0.5-1-1-1.9-1.7-2.6c-0.7-0.7-1.4-1.1-2.1-1.1c-1.5-0.1-3.2,1.6-4.2,3.6
				C229.3,147.2,228.6,149.5,228.1,151.9z"/>
			<path class="st7" d="M222.4,183c0.7,1,1.1,2.3,1.2,3.6c0,1.3-0.2,2.7-0.8,3.9c-1.1,2.5-3.3,4.4-5.9,5.4c-2.5,1-5.5,1-8-0.1
				c-1.2-0.5-2.3-1.4-3.2-2.4c-0.8-1-1.4-2.2-1.5-3.5c1.5,2,3.4,3.2,5.5,3.6c2.1,0.5,4.2,0.3,6.1-0.5c1.9-0.8,3.7-2,4.9-3.8
				C222,187.7,222.7,185.5,222.4,183z"/>
		</g>
	</g>
	<g>
		<path class="st8" d="M57.7,270.7v18.7h-7.9v-8.2H34.2v8.2h-7.8v-18.7c0-10.4,6.3-16,15.6-16S57.7,260.3,57.7,270.7z M49.8,274.9
			V270c0-5.8-3.1-8.6-7.8-8.6c-4.7,0-7.8,2.8-7.8,8.6v4.9H49.8z"/>
		<path class="st8" d="M91.7,274.4v15h-7.6v-13.8c0-4.2-1.9-6.2-5.3-6.2c-3.7,0-6.3,2.2-6.3,7.1v13h-7.6v-36.1h7.6v12.7
			c2-2,5-3.1,8.3-3.1C87.1,262.8,91.7,266.4,91.7,274.4z"/>
		<path class="st8" d="M97,276.3c0-7.9,6.1-13.5,14.4-13.5s14.4,5.6,14.4,13.5c0,7.9-6,13.5-14.4,13.5S97,284.2,97,276.3z
			 M118,276.3c0-4.5-2.9-7.3-6.7-7.3s-6.7,2.7-6.7,7.3c0,4.5,2.9,7.3,6.7,7.3S118,280.8,118,276.3z"/>
		<path class="st8" d="M147.1,262.8v7c-0.6,0-1.1-0.1-1.7-0.1c-4.2,0-7,2.3-7,7.3v12.4h-7.6v-26.2h7.3v3.5
			C139.9,264.1,143,262.8,147.1,262.8z"/>
		<path class="st8" d="M167.9,262.8v7c-0.6,0-1.1-0.1-1.7-0.1c-4.2,0-7,2.3-7,7.3v12.4h-7.6v-26.2h7.3v3.5
			C160.7,264.1,163.8,262.8,167.9,262.8z"/>
		<path class="st8" d="M198.8,263.2v26.2h-7.3v-3c-1.9,2.3-4.7,3.4-8.2,3.4c-7.4,0-13.1-5.3-13.1-13.5c0-8.2,5.7-13.5,13.1-13.5
			c3.2,0,5.9,1,7.8,3.2v-2.8H198.8z M191.3,276.3c0-4.5-2.9-7.3-6.7-7.3c-3.8,0-6.7,2.7-6.7,7.3c0,4.5,2.9,7.3,6.7,7.3
			C188.4,283.5,191.3,280.8,191.3,276.3z"/>
		<path class="st8" d="M232.6,274.4v15H225v-13.8c0-4.2-1.9-6.2-5.3-6.2c-3.7,0-6.3,2.2-6.3,7.1v13h-7.6v-26.2h7.3v3.1
			c2-2.2,5.1-3.5,8.7-3.5C227.9,262.8,232.6,266.4,232.6,274.4z"/>
		<path class="st8" d="M266.4,253.2v36.1h-7.3v-3c-1.9,2.3-4.7,3.4-8.2,3.4c-7.4,0-13.1-5.3-13.1-13.5c0-8.2,5.7-13.5,13.1-13.5
			c3.2,0,5.9,1,7.8,3.2v-12.7H266.4z M259,276.3c0-4.5-2.9-7.3-6.7-7.3c-3.8,0-6.7,2.7-6.7,7.3c0,4.5,2.9,7.3,6.7,7.3
			C256,283.5,259,280.8,259,276.3z"/>
		<path class="st8" d="M271.5,276.3c0-7.9,6.1-13.5,14.4-13.5s14.4,5.6,14.4,13.5c0,7.9-6,13.5-14.4,13.5S271.5,284.2,271.5,276.3z
			 M292.6,276.3c0-4.5-2.9-7.3-6.7-7.3s-6.7,2.7-6.7,7.3c0,4.5,2.9,7.3,6.7,7.3S292.6,280.8,292.6,276.3z"/>
		<path class="st8" d="M317.8,280.7v-27.5h7.6v27c0,2.2,1.2,3.5,3.3,3.5c0.8,0,1.7-0.2,2.1-0.5l0.3,5.9c-1.3,0.4-2.6,0.6-3.9,0.6
			C321.3,289.8,317.8,286.6,317.8,280.7z"/>
		<path class="st8" d="M361,263.2v26.2h-7.3v-3c-1.9,2.3-4.7,3.4-8.2,3.4c-7.4,0-13.1-5.3-13.1-13.5c0-8.2,5.7-13.5,13.1-13.5
			c3.2,0,5.9,1,7.8,3.2v-2.8H361z M353.5,276.3c0-4.5-2.9-7.3-6.7-7.3c-3.8,0-6.7,2.7-6.7,7.3c0,4.5,2.9,7.3,6.7,7.3
			C350.6,283.5,353.5,280.8,353.5,276.3z"/>
		<g>
			<path class="st9" d="M307.9,279.1c-3.3,0-5.9,2.7-5.9,5.9c0,3.3,2.7,5.9,5.9,5.9s5.9-2.7,5.9-5.9
				C313.8,281.8,311.2,279.1,307.9,279.1z M308.2,285.6c0.7,0.2,1.3,0.5,1.3,1.1c0,0.5-0.4,1-1.3,1.1V285.6z M307.6,284.5
				c-0.7-0.2-1.2-0.5-1.2-1.1c0-0.5,0.4-1,1.2-1.1V284.5z M303.2,285c0-2.7,1.9-4.5,4.4-4.6v1.1c-1.5,0.1-2.2,1-2.2,2
				c0,1.4,1.1,1.7,2.2,2v2.3c-0.8,0-1.5-0.4-2-0.8l-0.4,0.8c0.5,0.5,1.4,0.8,2.4,0.9v1.1C305.1,289.6,303.2,287.7,303.2,285z
				 M308.2,289.7v-1.1c1.5-0.1,2.3-1,2.3-2c0-1.4-1.2-1.7-2.3-2v-2.3c0.5,0,1.1,0.2,1.7,0.6l0.3-0.8c-0.5-0.4-1.2-0.6-2-0.6v-1.1
				c2.5,0.1,4.4,1.9,4.4,4.6C312.6,287.7,310.7,289.6,308.2,289.7z"/>
			<path class="st10" d="M307.6,288.6c-1-0.1-1.9-0.4-2.4-0.9l0.4-0.8c0.5,0.4,1.2,0.8,2,0.8v-2.3c-1.1-0.3-2.2-0.6-2.2-2
				c0-1,0.7-1.9,2.2-2v-1.1c-2.5,0.1-4.4,1.9-4.4,4.6c0,2.7,1.9,4.6,4.4,4.7V288.6z"/>
			<path class="st10" d="M308.2,280.3v1.1c0.7,0,1.5,0.3,2,0.6l-0.3,0.8c-0.5-0.3-1.1-0.5-1.7-0.6v2.3c1.1,0.3,2.3,0.6,2.3,2
				c0,1-0.7,1.9-2.3,2v1.1c2.5-0.2,4.4-2.1,4.4-4.7C312.6,282.3,310.7,280.5,308.2,280.3z"/>
			<path class="st10" d="M309.5,286.7c0-0.6-0.6-0.9-1.3-1.1v2.2C309.1,287.7,309.5,287.2,309.5,286.7z"/>
			<path class="st10" d="M306.3,283.4c0,0.6,0.5,0.9,1.2,1.1v-2.2C306.7,282.4,306.3,282.9,306.3,283.4z"/>
		</g>
	</g>
</g>
</svg>
