<?xml version="1.0" encoding="utf-8"?>
<!-- Generator: Adobe Illustrator 22.1.0, SVG Export Plug-In . SVG Version: 6.00 Build 0)  -->
<svg version="1.1" id="Layer_1" xmlns="http://www.w3.org/2000/svg" xmlns:xlink="http://www.w3.org/1999/xlink" x="0px" y="0px"
	 viewBox="0 0 204 150" style="enable-background:new 0 0 204 150;" xml:space="preserve">
<style type="text/css">
	.st0{fill:#189687;}
</style>
<g>
	<path class="st0" d="M189.5,0h-175C6.5,0,0,6.5,0,14.5v121c0,8,6.5,14.5,14.5,14.5h175c8,0,14.5-6.5,14.5-14.5v-121
		C204,6.5,197.5,0,189.5,0z M14.5,5h175c5.2,0,9.5,4.3,9.5,9.5v9.2H5v-9.2C5,9.3,9.3,5,14.5,5z M189.5,145h-175
		c-5.2,0-9.5-4.3-9.5-9.5v-88h194v88C199,140.7,194.7,145,189.5,145z"/>
	<ellipse class="st0" cx="52" cy="80.2" rx="6.5" ry="11.8"/>
	<path class="st0" d="M145.5,80.2c-0.5-2.4-0.4-5,0.4-7.5c0.4-1.2,1-2.5,2-3.6c0.9-1.1,2.4-2,4.1-2.1c1.7,0,3.3,0.9,4.3,1.9
		c1,1.1,1.7,2.3,2.2,3.5c1,2.5,1.2,5.2,1.1,7.7l-0.8-1c0.4,0.1,1,0.3,1.6,0.3c0.6,0,1.1,0,1.7-0.2c0.6-0.1,1.1-0.4,1.6-0.7
		c0.5-0.3,1-0.8,1.4-1.2c-0.2,0.6-0.5,1.2-1,1.8c-0.4,0.5-1,1-1.6,1.3c-0.6,0.4-1.3,0.6-2,0.7c-0.7,0.1-1.4,0.2-2.2,0l-0.7-0.1
		l-0.1-0.9c-0.2-2.3-0.7-4.6-1.6-6.6c-0.5-1-1-1.9-1.7-2.6c-0.7-0.7-1.4-1.1-2.1-1.1c-1.5-0.1-3.2,1.6-4.2,3.6
		C146.7,75.5,146,77.8,145.5,80.2z"/>
	<path class="st0" d="M139.8,111.3c0.7,1,1.1,2.3,1.2,3.6c0,1.3-0.2,2.7-0.8,3.9c-1.1,2.5-3.3,4.4-5.9,5.4c-2.5,1-5.5,1-8-0.1
		c-1.2-0.5-2.3-1.4-3.2-2.4c-0.8-1-1.4-2.2-1.5-3.5c1.5,2,3.4,3.2,5.5,3.6c2.1,0.5,4.2,0.3,6.1-0.5c1.9-0.8,3.7-2,4.9-3.8
		C139.4,116,140.1,113.8,139.8,111.3z"/>
</g>
</svg>
