<?xml version="1.0" encoding="utf-8"?>
<!-- Generator: Adobe Illustrator 22.1.0, SVG Export Plug-In . SVG Version: 6.00 Build 0)  -->
<svg version="1.1" id="Layer_1" xmlns="http://www.w3.org/2000/svg" xmlns:xlink="http://www.w3.org/1999/xlink" x="0px" y="0px"
	 viewBox="0 0 334.6 37.7" style="enable-background:new 0 0 334.6 37.7;" xml:space="preserve">
<style type="text/css">
	.st0{fill:#EDEDED;}
	.st1{fill:#DC8F27;}
	.st2{fill:#F1AC2F;}
</style>
<g>
	<path class="st0" d="M31.3,17.5v18.7h-7.9V28H7.8v8.2H0V17.5c0-10.4,6.3-16,15.6-16S31.3,7.1,31.3,17.5z M23.4,21.6v-4.9
		c0-5.8-3.1-8.6-7.8-8.6c-4.7,0-7.8,2.8-7.8,8.6v4.9H23.4z"/>
	<path class="st0" d="M65.3,21.1v15h-7.6V22.3c0-4.2-1.9-6.2-5.3-6.2c-3.7,0-6.3,2.2-6.3,7.1v13h-7.6V0h7.6v12.7c2-2,5-3.1,8.3-3.1
		C60.6,9.5,65.3,13.2,65.3,21.1z"/>
	<path class="st0" d="M70.5,23c0-7.9,6.1-13.5,14.4-13.5S99.3,15.1,99.3,23c0,7.9-6,13.5-14.4,13.5S70.5,30.9,70.5,23z M91.6,23
		c0-4.5-2.9-7.3-6.7-7.3s-6.7,2.7-6.7,7.3c0,4.5,2.9,7.3,6.7,7.3S91.6,27.6,91.6,23z"/>
	<path class="st0" d="M120.7,9.5v7c-0.6,0-1.1-0.1-1.7-0.1c-4.2,0-7,2.3-7,7.3v12.4h-7.6V9.9h7.3v3.5
		C113.5,10.9,116.6,9.5,120.7,9.5z"/>
	<path class="st0" d="M141.5,9.5v7c-0.6,0-1.1-0.1-1.7-0.1c-4.2,0-7,2.3-7,7.3v12.4h-7.6V9.9h7.3v3.5
		C134.3,10.9,137.4,9.5,141.5,9.5z"/>
	<path class="st0" d="M172.3,9.9v26.2h-7.3v-3c-1.9,2.3-4.7,3.4-8.2,3.4c-7.4,0-13.1-5.3-13.1-13.5c0-8.2,5.7-13.5,13.1-13.5
		c3.2,0,5.9,1,7.8,3.2V9.9H172.3z M164.9,23c0-4.5-2.9-7.3-6.7-7.3c-3.8,0-6.7,2.7-6.7,7.3c0,4.5,2.9,7.3,6.7,7.3
		C162,30.3,164.9,27.6,164.9,23z"/>
	<path class="st0" d="M206.2,21.1v15h-7.6V22.3c0-4.2-1.9-6.2-5.3-6.2c-3.7,0-6.3,2.2-6.3,7.1v13h-7.6V9.9h7.3V13
		c2-2.2,5.1-3.5,8.7-3.5C201.5,9.5,206.2,13.2,206.2,21.1z"/>
	<path class="st0" d="M240,0v36.1h-7.3v-3c-1.9,2.3-4.7,3.4-8.2,3.4c-7.4,0-13.1-5.3-13.1-13.5c0-8.2,5.7-13.5,13.1-13.5
		c3.2,0,5.9,1,7.8,3.2V0H240z M232.6,23c0-4.5-2.9-7.3-6.7-7.3c-3.8,0-6.7,2.7-6.7,7.3c0,4.5,2.9,7.3,6.7,7.3
		C229.6,30.3,232.6,27.6,232.6,23z"/>
	<path class="st0" d="M245.1,23c0-7.9,6.1-13.5,14.4-13.5s14.4,5.6,14.4,13.5c0,7.9-6,13.5-14.4,13.5S245.1,30.9,245.1,23z
		 M266.2,23c0-4.5-2.9-7.3-6.7-7.3s-6.7,2.7-6.7,7.3c0,4.5,2.9,7.3,6.7,7.3S266.2,27.6,266.2,23z"/>
	<path class="st0" d="M291.4,27.5V0h7.6v27c0,2.2,1.2,3.5,3.3,3.5c0.8,0,1.7-0.2,2.1-0.5l0.3,5.9c-1.3,0.4-2.6,0.6-3.9,0.6
		C294.9,36.5,291.4,33.3,291.4,27.5z"/>
	<path class="st0" d="M334.6,9.9v26.2h-7.3v-3c-1.9,2.3-4.7,3.4-8.2,3.4c-7.4,0-13.1-5.3-13.1-13.5c0-8.2,5.7-13.5,13.1-13.5
		c3.2,0,5.9,1,7.8,3.2V9.9H334.6z M327.1,23c0-4.5-2.9-7.3-6.7-7.3c-3.8,0-6.7,2.7-6.7,7.3c0,4.5,2.9,7.3,6.7,7.3
		C324.2,30.3,327.1,27.6,327.1,23z"/>
	<g>
		<path class="st1" d="M281.5,25.9c-3.3,0-5.9,2.7-5.9,5.9c0,3.3,2.7,5.9,5.9,5.9s5.9-2.7,5.9-5.9C287.4,28.5,284.7,25.9,281.5,25.9
			z M281.8,32.4c0.7,0.2,1.3,0.5,1.3,1.1c0,0.5-0.4,1-1.3,1.1V32.4z M281.2,31.3c-0.7-0.2-1.2-0.5-1.2-1.1c0-0.5,0.4-1,1.2-1.1V31.3
			z M276.7,31.8c0-2.7,1.9-4.5,4.4-4.6v1.1c-1.5,0.1-2.2,1-2.2,2c0,1.4,1.1,1.7,2.2,2v2.3c-0.8,0-1.5-0.4-2-0.8l-0.4,0.8
			c0.5,0.5,1.4,0.8,2.4,0.9v1.1C278.7,36.4,276.7,34.4,276.7,31.8z M281.8,36.5v-1.1c1.5-0.1,2.3-1,2.3-2c0-1.4-1.2-1.7-2.3-2v-2.3
			c0.5,0,1.1,0.2,1.7,0.6l0.3-0.8c-0.5-0.4-1.2-0.6-2-0.6v-1.1c2.5,0.1,4.4,1.9,4.4,4.6C286.2,34.4,284.3,36.3,281.8,36.5z"/>
		<path class="st2" d="M281.2,35.4c-1-0.1-1.9-0.4-2.4-0.9l0.4-0.8c0.5,0.4,1.2,0.8,2,0.8v-2.3c-1.1-0.3-2.2-0.6-2.2-2
			c0-1,0.7-1.9,2.2-2v-1.1c-2.5,0.1-4.4,1.9-4.4,4.6c0,2.7,1.9,4.6,4.4,4.7V35.4z"/>
		<path class="st2" d="M281.8,27.1v1.1c0.7,0,1.5,0.3,2,0.6l-0.3,0.8c-0.5-0.3-1.1-0.5-1.7-0.6v2.3c1.1,0.3,2.3,0.6,2.3,2
			c0,1-0.7,1.9-2.3,2v1.1c2.5-0.2,4.4-2.1,4.4-4.7C286.2,29,284.3,27.3,281.8,27.1z"/>
		<path class="st2" d="M283.1,33.5c0-0.6-0.6-0.9-1.3-1.1v2.2C282.7,34.4,283.1,34,283.1,33.5z"/>
		<path class="st2" d="M279.9,30.2c0,0.6,0.5,0.9,1.2,1.1v-2.2C280.3,29.2,279.9,29.6,279.9,30.2z"/>
	</g>
</g>
</svg>
